{"glyphs":{"0":{"ha":972,"x_min":54,"x_max":918,"o":"m 54 479 q 167 861 54 736 q 489 986 279 986 q 813 860 707 986 q 918 482 918 735 q 806 100 918 225 q 483 -25 694 -25 q 160 101 265 -25 q 54 479 54 228 m 292 479 q 339 234 292 306 q 486 163 386 163 q 633 234 586 163 q 681 482 681 306 q 633 727 681 656 q 486 799 586 799 q 339 727 386 799 q 292 479 292 656 z "},"1":{"ha":972,"x_min":136,"x_max":694,"o":"m 458 704 l 240 569 l 136 732 l 493 960 l 694 960 l 694 0 l 458 0 l 458 704 z "},"2":{"ha":972,"x_min":74,"x_max":903,"o":"m 85 171 q 250 285 178 235 q 390 385 322 336 q 520 483 469 442 q 599 554 571 524 q 637 613 626 585 q 647 671 647 640 q 482 803 647 803 q 359 770 403 803 q 296 664 315 738 l 74 688 q 208 910 101 833 q 492 986 315 986 q 780 908 676 986 q 883 692 883 831 q 860 572 883 626 q 783 463 838 518 q 632 336 728 407 q 533 264 581 297 q 418 186 485 231 l 903 186 l 878 0 l 85 0 l 85 171 z "},"3":{"ha":972,"x_min":61,"x_max":907,"o":"m 674 285 q 485 408 674 408 l 369 408 l 369 581 l 489 581 q 610 610 568 581 q 653 696 653 640 q 610 778 653 749 q 481 807 567 807 q 358 778 401 807 q 292 678 314 750 l 76 700 q 209 916 99 846 q 490 986 319 986 q 775 915 672 986 q 878 726 878 844 q 840 600 878 657 q 715 511 801 543 q 861 416 815 476 q 907 275 907 356 q 799 56 907 136 q 486 -25 690 -25 q 244 19 336 -25 q 108 137 151 63 q 61 301 64 211 l 282 301 q 339 192 292 228 q 483 156 386 156 q 625 188 576 156 q 674 285 674 221 z "},"4":{"ha":972,"x_min":33,"x_max":943,"o":"m 582 197 l 33 197 l 33 369 l 568 960 l 794 960 l 794 365 l 943 365 l 919 197 l 794 197 l 794 0 l 582 0 l 582 197 m 582 729 l 253 365 l 582 365 l 582 729 z "},"5":{"ha":972,"x_min":86,"x_max":906,"o":"m 676 313 q 494 460 676 460 q 390 447 431 460 q 314 403 350 433 l 113 403 l 160 960 l 835 960 l 835 776 l 344 776 l 328 582 q 428 617 378 607 q 549 626 478 626 q 812 543 718 626 q 906 311 906 460 q 801 63 906 151 q 501 -25 696 -25 q 208 50 313 -25 q 86 268 103 125 l 311 268 q 370 182 326 208 q 499 156 414 156 q 676 313 676 156 z "},"6":{"ha":972,"x_min":75,"x_max":907,"o":"m 75 435 q 195 847 75 707 q 522 986 315 986 q 765 920 674 986 q 882 732 856 854 l 671 708 q 616 779 653 754 q 514 804 579 804 q 360 740 410 804 q 299 571 310 676 l 294 532 q 403 597 339 575 q 544 618 467 618 q 808 538 708 618 q 907 306 907 458 q 855 130 907 204 q 710 15 803 56 q 496 -25 618 -25 q 185 92 294 -25 q 75 435 75 208 m 310 314 q 361 199 310 243 q 496 154 413 154 q 633 195 581 154 q 685 307 685 236 q 639 417 685 378 q 500 456 593 456 q 364 419 418 456 q 310 314 310 382 z "},"7":{"ha":972,"x_min":63,"x_max":879,"o":"m 63 960 l 879 960 l 879 790 q 654 411 749 603 q 486 0 560 219 l 242 0 q 408 402 314 214 q 622 767 503 590 l 63 767 l 63 960 z "},"8":{"ha":972,"x_min":49,"x_max":924,"o":"m 49 257 q 97 402 49 340 q 238 496 146 464 q 83 711 83 560 q 192 913 83 839 q 489 986 300 986 q 783 914 678 986 q 889 714 889 842 q 849 583 889 639 q 733 496 808 526 q 874 405 825 465 q 924 263 924 344 q 810 49 924 124 q 485 -25 697 -25 q 160 47 272 -25 q 49 257 49 119 m 272 279 q 488 153 272 153 q 700 279 700 153 q 488 406 700 406 q 272 279 272 406 m 297 693 q 486 574 297 574 q 675 693 675 574 q 626 780 675 750 q 486 810 578 810 q 346 780 394 810 q 297 693 297 750 z "},"9":{"ha":972,"x_min":65,"x_max":897,"o":"m 65 656 q 117 832 65 758 q 262 946 169 906 q 476 986 354 986 q 788 865 679 986 q 897 503 897 744 q 851 228 897 347 q 712 42 806 108 q 475 -25 618 -25 q 199 46 299 -25 q 83 247 99 117 l 304 247 q 360 179 319 201 q 476 157 400 157 q 675 428 665 157 q 428 343 589 343 q 165 423 264 343 q 65 656 65 503 m 288 654 q 333 544 288 583 q 472 506 379 506 q 608 542 554 506 q 661 647 661 579 q 610 762 661 717 q 476 807 560 807 q 340 765 392 807 q 288 654 288 724 z "}," ":{"ha":381,"x_min":0,"x_max":0,"o":""},"!":{"ha":447,"x_min":99,"x_max":349,"o":"m 99 992 l 349 992 l 329 303 l 118 303 l 99 992 m 110 211 l 338 211 l 338 0 l 110 0 l 110 211 z "},"\"":{"ha":629,"x_min":58,"x_max":571,"o":"m 58 992 l 264 992 l 254 611 l 68 611 l 58 992 m 365 992 l 571 992 l 561 611 l 375 611 l 365 992 z "},"#":{"ha":972,"x_min":19,"x_max":953,"o":"m 19 375 l 169 375 l 206 585 l 79 585 l 79 746 l 232 746 l 268 960 l 457 960 l 421 746 l 640 746 l 676 960 l 865 960 l 829 746 l 953 746 l 953 585 l 803 585 l 767 375 l 893 375 l 893 214 l 740 214 l 704 0 l 515 0 l 551 214 l 332 214 l 296 0 l 107 0 l 143 214 l 19 214 l 19 375 m 614 585 l 394 585 l 358 375 l 578 375 l 614 585 z "},"$":{"ha":972,"x_min":39,"x_max":931,"o":"m 443 -22 q 158 67 264 -11 q 39 300 53 146 l 257 300 q 443 143 281 164 l 443 401 q 155 501 242 424 q 68 694 68 579 q 166 901 68 824 q 443 986 264 978 l 443 1114 l 540 1114 l 540 986 q 794 908 697 976 q 914 701 892 840 l 704 679 q 649 776 686 742 q 540 819 611 811 l 540 582 q 841 476 751 556 q 931 274 931 397 q 881 115 931 179 q 744 17 832 51 q 540 -22 657 -18 l 540 -165 l 443 -165 l 443 -22 m 711 263 q 674 351 711 319 q 557 390 638 383 l 540 392 l 540 140 q 663 173 614 144 q 711 263 711 201 m 443 822 q 326 795 374 819 q 279 710 279 771 q 315 631 279 661 q 443 592 351 600 l 443 822 z "},"%":{"ha":1604,"x_min":51,"x_max":1553,"o":"m 979 960 l 1190 960 l 625 0 l 415 0 l 979 960 m 972 281 q 1051 501 972 421 q 1264 582 1129 582 q 1476 503 1400 582 q 1553 283 1553 424 q 1475 63 1553 144 q 1261 -18 1397 -18 q 1049 62 1125 -18 q 972 281 972 142 m 1146 282 q 1174 157 1146 197 q 1263 117 1203 117 q 1351 157 1322 117 q 1379 282 1379 197 q 1351 408 1379 368 q 1263 449 1324 449 q 1146 282 1146 449 m 51 676 q 130 897 51 817 q 343 978 208 978 q 556 899 479 978 q 632 679 632 819 q 554 459 632 540 q 340 378 476 378 q 128 458 204 378 q 51 676 51 538 m 225 678 q 253 553 225 593 q 342 513 282 513 q 430 553 401 513 q 458 678 458 593 q 431 804 458 764 q 342 844 403 844 q 225 678 225 844 z "},"&":{"ha":1138,"x_min":40,"x_max":1150,"o":"m 40 269 q 285 554 40 446 q 202 667 226 617 q 178 767 178 718 q 219 892 178 838 q 332 976 260 946 q 500 1006 404 1006 q 726 944 642 1006 q 810 782 810 883 q 758 639 810 703 q 589 515 706 575 l 821 301 q 858 386 844 339 q 872 492 871 433 l 1068 492 q 1038 316 1067 396 q 960 175 1010 236 l 1150 0 l 879 0 l 817 58 q 483 -22 674 -22 q 155 53 269 -22 q 40 269 40 128 m 267 288 q 328 178 267 217 q 503 140 389 140 q 595 150 549 140 q 685 181 642 160 l 406 439 q 300 366 333 401 q 267 288 267 331 m 382 761 q 403 694 382 725 q 476 618 425 664 q 584 687 553 654 q 615 760 615 719 q 585 827 615 803 q 503 851 554 851 q 413 828 444 851 q 382 761 382 804 z "},"'":{"ha":322,"x_min":58,"x_max":264,"o":"m 58 992 l 264 992 l 254 611 l 68 611 l 58 992 z "},"(":{"ha":529,"x_min":72,"x_max":504,"o":"m 72 424 q 126 748 72 599 q 282 1019 181 897 l 504 1019 q 360 731 406 874 q 315 424 315 589 q 360 117 315 260 q 504 -172 406 -26 l 282 -172 q 126 100 181 -49 q 72 424 72 249 z "},")":{"ha":529,"x_min":25,"x_max":457,"o":"m 214 424 q 169 731 214 589 q 25 1019 125 874 l 247 1019 q 403 748 349 897 q 457 424 457 599 q 403 100 457 249 q 247 -172 349 -49 l 25 -172 q 169 116 125 -26 q 214 424 214 258 z "},"*":{"ha":682,"x_min":36,"x_max":646,"o":"m 244 992 l 438 992 l 410 792 l 576 885 l 646 711 l 444 661 l 597 513 l 447 400 l 342 579 l 235 400 l 85 513 l 236 663 l 36 711 l 106 885 l 272 792 l 244 992 z "},"+":{"ha":972,"x_min":94,"x_max":878,"o":"m 382 378 l 94 378 l 94 568 l 382 568 l 382 860 l 590 860 l 590 568 l 878 568 l 878 378 l 590 378 l 590 85 l 382 85 l 382 378 z "},",":{"ha":421,"x_min":53,"x_max":344,"o":"m 114 238 l 344 238 l 238 -140 l 53 -140 l 114 238 z "},"-":{"ha":676,"x_min":63,"x_max":614,"o":"m 63 514 l 614 514 l 614 313 l 63 313 l 63 514 z "},".":{"ha":421,"x_min":96,"x_max":325,"o":"m 96 238 l 325 238 l 325 0 l 96 0 l 96 238 z "},"/":{"ha":638,"x_min":10,"x_max":628,"o":"m 404 1019 l 628 1019 l 233 0 l 10 0 l 404 1019 z "},":":{"ha":421,"x_min":96,"x_max":325,"o":"m 96 238 l 325 238 l 325 0 l 96 0 l 96 238 m 96 725 l 325 725 l 325 488 l 96 488 l 96 725 z "},";":{"ha":421,"x_min":53,"x_max":344,"o":"m 114 238 l 344 238 l 238 -140 l 53 -140 l 114 238 m 111 725 l 340 725 l 340 488 l 111 488 l 111 725 z "},"<":{"ha":972,"x_min":108,"x_max":842,"o":"m 108 563 l 842 860 l 842 663 l 361 475 l 842 288 l 842 85 l 108 382 l 108 563 z "},"=":{"ha":972,"x_min":119,"x_max":853,"o":"m 119 400 l 853 400 l 853 214 l 119 214 l 119 400 m 119 733 l 853 733 l 853 547 l 119 547 l 119 733 z "},">":{"ha":972,"x_min":131,"x_max":864,"o":"m 131 282 l 611 469 l 131 657 l 131 860 l 864 563 l 864 382 l 131 85 l 131 282 z "},"?":{"ha":900,"x_min":29,"x_max":839,"o":"m 332 325 q 346 411 332 374 q 392 485 360 449 q 483 564 425 521 q 559 624 533 600 q 594 669 585 649 q 603 713 603 689 q 444 824 603 824 q 311 792 358 824 q 244 692 264 761 l 29 714 q 454 1008 82 1008 q 738 940 636 1008 q 839 747 839 871 q 801 613 839 671 q 672 489 764 554 q 593 426 621 453 q 554 376 565 400 q 543 319 543 351 l 543 303 l 332 303 l 332 325 m 324 211 l 550 211 l 550 0 l 324 0 l 324 211 z "},"@":{"ha":1614,"x_min":65,"x_max":1549,"o":"m 65 260 q 124 542 65 413 q 290 766 183 671 q 543 913 397 861 q 863 965 689 965 q 1227 899 1074 965 q 1465 710 1381 832 q 1549 424 1549 589 q 1500 196 1549 294 q 1365 42 1451 97 q 1165 -14 1279 -14 q 1033 9 1081 -14 q 965 83 985 32 q 947 114 954 97 q 843 17 901 49 q 703 -14 785 -14 q 507 60 579 -14 q 435 265 435 133 q 483 461 435 374 q 611 599 531 549 q 792 650 692 650 q 912 625 863 650 q 986 554 961 600 l 1001 636 l 1196 636 l 1118 226 q 1114 201 1115 213 q 1113 183 1113 190 q 1131 134 1113 149 q 1186 119 1149 119 q 1289 157 1244 119 q 1358 261 1333 194 q 1383 415 1383 328 q 1249 716 1383 607 q 865 825 1114 825 q 610 785 725 825 q 412 670 494 744 q 284 493 329 596 q 239 265 239 390 q 372 -55 239 60 q 764 -169 504 -169 q 951 -147 872 -169 q 1099 -74 1031 -125 l 1326 -74 q 1094 -247 1246 -185 q 740 -308 943 -308 q 378 -240 529 -308 q 146 -45 226 -172 q 65 260 65 82 m 639 276 q 670 174 639 207 q 754 140 701 140 q 868 179 822 140 q 926 289 914 218 l 936 347 q 913 455 947 414 q 814 496 879 496 q 722 465 761 496 q 660 385 682 435 q 639 276 639 336 z "},"A":{"ha":1208,"x_min":17,"x_max":1192,"o":"m 268 0 l 17 0 l 464 992 l 744 992 l 1192 0 l 933 0 l 842 211 l 356 211 l 268 0 m 600 796 l 432 397 l 769 397 l 600 796 z "},"B":{"ha":1129,"x_min":119,"x_max":1061,"o":"m 119 992 l 613 992 q 1024 736 1024 992 q 864 525 1024 585 q 1061 289 1061 460 q 953 74 1061 147 q 636 0 844 0 l 119 0 l 119 992 m 824 301 q 774 401 824 369 q 617 433 724 433 l 347 433 l 347 172 l 617 172 q 775 203 726 172 q 824 301 824 233 m 788 711 q 743 794 788 768 q 600 819 699 819 l 347 819 l 347 596 l 611 596 q 744 624 701 596 q 788 711 788 651 z "},"":{"ha":1129,"x_min":119,"x_max":1061,"o":"m 119 992 l 613 992 q 1024 736 1024 992 q 864 525 1024 585 q 1061 289 1061 460 q 953 74 1061 147 q 636 0 844 0 l 119 0 l 119 992 m 824 301 q 774 401 824 369 q 617 433 724 433 l 347 433 l 347 172 l 617 172 q 775 203 726 172 q 824 301 824 233 m 788 711 q 743 794 788 768 q 600 819 699 819 l 347 819 l 347 596 l 611 596 q 744 624 701 596 q 788 711 788 651 z "},"C":{"ha":1208,"x_min":72,"x_max":1154,"o":"m 72 496 q 138 765 72 647 q 328 949 203 882 q 632 1017 453 1017 q 1138 672 1049 1017 l 896 644 q 801 775 864 735 q 632 815 739 815 q 408 732 489 815 q 326 496 326 649 q 408 260 326 343 q 636 176 489 176 q 908 354 868 176 l 1154 354 q 997 74 1133 174 q 632 -25 860 -25 q 326 41 451 -25 q 137 224 201 107 q 72 496 72 342 z "},"D":{"ha":1235,"x_min":119,"x_max":1161,"o":"m 119 992 l 572 992 q 1011 865 861 992 q 1161 496 1161 739 q 1003 129 1161 258 q 551 0 846 0 l 119 0 l 119 992 m 911 497 q 575 794 911 794 l 361 794 l 361 197 l 558 197 q 911 497 911 197 z "},"E":{"ha":1053,"x_min":119,"x_max":993,"o":"m 119 992 l 961 992 l 961 806 l 361 806 l 361 599 l 932 599 l 932 414 l 361 414 l 361 186 l 993 186 l 967 0 l 119 0 l 119 992 z "},"":{"ha":1053,"x_min":119,"x_max":993,"o":"m 119 992 l 961 992 l 961 806 l 361 806 l 361 599 l 932 599 l 932 414 l 361 414 l 361 186 l 993 186 l 967 0 l 119 0 l 119 992 z "},"F":{"ha":964,"x_min":119,"x_max":922,"o":"m 119 992 l 922 992 l 922 801 l 364 801 l 364 569 l 892 569 l 892 379 l 364 379 l 364 0 l 119 0 l 119 992 z "},"G":{"ha":1238,"x_min":72,"x_max":1157,"o":"m 72 492 q 144 776 72 660 q 346 955 217 893 q 644 1017 475 1017 q 977 930 856 1017 q 1138 706 1099 843 l 893 679 q 803 787 865 753 q 639 821 742 821 q 403 735 483 821 q 322 496 322 650 q 671 171 322 171 q 931 217 825 171 l 931 369 l 671 369 l 671 550 l 1157 550 l 1157 111 q 936 10 1061 46 q 672 -25 811 -25 q 349 36 483 -25 q 144 213 215 97 q 72 492 72 329 z "},"H":{"ha":1242,"x_min":119,"x_max":1122,"o":"m 878 407 l 364 407 l 364 0 l 119 0 l 119 992 l 364 992 l 364 617 l 878 617 l 878 992 l 1122 992 l 1122 0 l 878 0 l 878 407 z "},"I":{"ha":485,"x_min":119,"x_max":364,"o":"m 119 992 l 364 992 l 364 0 l 119 0 l 119 992 z "},"J":{"ha":1060,"x_min":35,"x_max":951,"o":"m 706 381 l 706 992 l 951 992 l 951 389 q 836 80 951 185 q 497 -25 721 -25 q 167 70 285 -25 q 35 349 50 165 l 281 349 q 346 219 293 261 q 496 176 399 176 q 654 226 603 176 q 706 381 706 276 z "},"K":{"ha":1181,"x_min":119,"x_max":1161,"o":"m 119 992 l 364 992 l 364 569 l 838 992 l 1121 992 l 701 613 l 1161 0 l 878 0 l 532 463 l 364 319 l 364 0 l 119 0 l 119 992 z "},"L":{"ha":992,"x_min":119,"x_max":958,"o":"m 119 992 l 364 992 l 364 201 l 958 201 l 929 0 l 119 0 l 119 992 z "},"M":{"ha":1471,"x_min":119,"x_max":1350,"o":"m 119 992 l 401 992 l 739 263 l 1075 992 l 1350 992 l 1350 0 l 1122 0 l 1122 656 l 825 0 l 640 0 l 343 654 l 343 0 l 119 0 l 119 992 z "},"N":{"ha":1244,"x_min":119,"x_max":1125,"o":"m 119 992 l 340 992 l 892 329 l 892 992 l 1125 992 l 1125 0 l 904 0 l 353 664 l 353 0 l 119 0 l 119 992 z "},"O":{"ha":1304,"x_min":72,"x_max":1232,"o":"m 72 496 q 143 774 72 657 q 344 953 214 890 q 654 1017 475 1017 q 963 953 833 1017 q 1162 774 1092 890 q 1232 496 1232 657 q 1161 218 1232 335 q 960 38 1090 101 q 650 -25 829 -25 q 342 38 472 -25 q 142 218 213 101 q 72 496 72 335 m 326 496 q 412 260 326 344 q 653 176 497 176 q 892 260 806 176 q 978 496 978 344 q 892 732 978 649 q 653 815 807 815 q 413 731 499 815 q 326 496 326 647 z "},"P":{"ha":1090,"x_min":119,"x_max":1031,"o":"m 119 992 l 604 992 q 1031 661 1031 992 q 921 408 1031 490 q 588 326 811 326 l 358 326 l 358 0 l 119 0 l 119 992 m 789 663 q 740 769 789 736 q 589 803 692 803 l 358 803 l 358 514 l 586 514 q 739 549 689 514 q 789 663 789 585 z "},"Q":{"ha":1304,"x_min":72,"x_max":1232,"o":"m 72 496 q 143 774 72 657 q 344 953 214 890 q 654 1017 475 1017 q 963 953 833 1017 q 1162 774 1092 890 q 1232 496 1232 657 q 1192 283 1232 378 q 1081 121 1153 188 l 1219 -19 l 1097 -137 l 933 28 q 802 -11 874 3 q 650 -25 731 -25 q 342 38 472 -25 q 142 218 213 101 q 72 496 72 335 m 324 496 q 410 258 324 342 q 653 174 497 174 q 778 193 725 174 l 658 314 l 778 426 l 915 288 q 963 378 946 325 q 981 496 981 431 q 894 731 981 647 q 653 815 808 815 q 410 731 497 815 q 324 496 324 647 z "},"R":{"ha":1118,"x_min":119,"x_max":1101,"o":"m 119 992 l 614 992 q 1038 674 1038 992 q 992 503 1038 569 q 857 400 946 438 l 1101 0 l 835 0 l 628 353 q 610 353 619 353 q 588 353 600 353 l 351 353 l 351 0 l 119 0 l 119 992 m 800 674 q 753 778 800 747 q 600 808 706 808 l 351 808 l 351 536 l 597 536 q 750 569 700 536 q 800 674 800 601 z "},"S":{"ha":1101,"x_min":47,"x_max":1043,"o":"m 797 278 q 760 351 797 324 q 636 390 722 378 l 460 417 q 165 521 257 449 q 74 721 74 593 q 201 939 74 861 q 551 1017 328 1017 q 872 947 758 1017 q 1017 732 985 878 l 783 706 q 701 806 757 775 q 544 836 646 836 q 375 808 435 836 q 315 728 315 781 q 351 657 315 681 q 479 619 386 633 l 688 586 q 958 485 874 557 q 1043 283 1043 413 q 919 54 1043 133 q 560 -25 796 -25 q 47 311 82 -25 l 292 311 q 373 194 307 232 q 561 156 439 156 q 737 187 676 156 q 797 278 797 218 z "},"":{"ha":1101,"x_min":47,"x_max":1043,"o":"m 797 278 q 760 351 797 324 q 636 390 722 378 l 460 417 q 165 521 257 449 q 74 721 74 593 q 201 939 74 861 q 551 1017 328 1017 q 872 947 758 1017 q 1017 732 985 878 l 783 706 q 701 806 757 775 q 544 836 646 836 q 375 808 435 836 q 315 728 315 781 q 351 657 315 681 q 479 619 386 633 l 688 586 q 958 485 874 557 q 1043 283 1043 413 q 919 54 1043 133 q 560 -25 796 -25 q 47 311 82 -25 l 292 311 q 373 194 307 232 q 561 156 439 156 q 737 187 676 156 q 797 278 797 218 z "},"T":{"ha":1044,"x_min":18,"x_max":1026,"o":"m 400 790 l 18 790 l 18 992 l 1026 992 l 1026 790 l 644 790 l 644 0 l 400 0 l 400 790 z "},"U":{"ha":1204,"x_min":108,"x_max":1096,"o":"m 108 422 l 108 992 l 353 992 l 353 406 q 413 232 353 288 q 603 176 474 176 q 791 232 731 176 q 851 406 851 288 l 851 992 l 1096 992 l 1096 422 q 969 82 1096 189 q 603 -25 843 -25 q 235 82 361 -25 q 108 422 108 189 z "},"V":{"ha":1158,"x_min":17,"x_max":1142,"o":"m 582 225 l 878 992 l 1142 992 l 722 0 l 435 0 l 17 992 l 289 992 l 582 225 z "},"W":{"ha":1649,"x_min":22,"x_max":1626,"o":"m 1368 992 l 1626 992 l 1299 0 l 1036 0 l 822 688 l 607 0 l 350 0 l 22 992 l 288 992 l 490 269 l 713 986 l 943 986 l 1165 268 l 1368 992 z "},"X":{"ha":1176,"x_min":17,"x_max":1160,"o":"m 583 668 l 839 992 l 1113 992 l 736 525 l 1160 0 l 868 0 l 579 368 l 292 0 l 17 0 l 428 515 l 47 992 l 339 992 l 583 668 z "},"Y":{"ha":1113,"x_min":17,"x_max":1096,"o":"m 433 392 l 17 992 l 288 992 l 560 579 l 833 992 l 1096 992 l 678 390 l 678 0 l 433 0 l 433 392 z "},"Z":{"ha":1028,"x_min":46,"x_max":993,"o":"m 46 175 l 658 799 l 58 799 l 58 992 l 965 992 l 965 817 l 353 193 l 993 193 l 967 0 l 46 0 l 46 175 z "},"[":{"ha":579,"x_min":119,"x_max":550,"o":"m 119 1019 l 550 1019 l 550 838 l 354 838 l 354 10 l 550 10 l 550 -172 l 119 -172 l 119 1019 z "},"\\":{"ha":638,"x_min":10,"x_max":628,"o":"m 10 1019 l 233 1019 l 628 0 l 404 0 l 10 1019 z "},"]":{"ha":579,"x_min":29,"x_max":458,"o":"m 29 10 l 225 10 l 225 838 l 29 838 l 29 1019 l 458 1019 l 458 -172 l 29 -172 l 29 10 z "},"^":{"ha":972,"x_min":51,"x_max":919,"o":"m 483 786 l 279 407 l 51 407 l 385 992 l 586 992 l 919 407 l 688 407 l 483 786 z "},"_":{"ha":847,"x_min":0,"x_max":847,"o":"m 0 -171 l 847 -171 l 847 -243 l 0 -243 l 0 -171 z "},"`":{"ha":1013,"x_min":274,"x_max":739,"o":"m 739 815 l 529 815 l 274 1038 l 533 1038 l 739 815 z "},"a":{"ha":957,"x_min":56,"x_max":861,"o":"m 56 203 q 157 380 56 321 q 472 444 258 439 l 643 449 l 643 476 q 483 599 643 599 q 307 518 336 599 l 100 535 q 492 747 143 747 q 861 458 861 747 l 861 0 l 650 0 l 650 96 q 517 8 589 35 q 353 -19 446 -19 q 133 38 210 -19 q 56 203 56 96 m 275 219 q 417 131 275 131 q 526 149 475 131 q 610 203 578 168 q 643 288 643 238 l 643 322 l 486 318 q 326 292 376 315 q 275 219 275 268 z "},"b":{"ha":1042,"x_min":101,"x_max":975,"o":"m 328 0 l 101 0 l 101 992 l 332 992 l 332 624 q 455 715 381 683 q 621 747 529 747 q 807 700 728 747 q 931 569 886 653 q 975 371 975 485 q 929 168 975 257 q 799 28 883 79 q 599 -22 714 -22 q 328 94 422 -22 l 328 0 m 331 383 l 331 349 q 385 206 331 261 q 533 151 440 151 q 688 206 636 151 q 740 365 740 261 q 688 519 740 465 q 540 574 636 574 q 390 519 449 574 q 331 383 331 465 z "},"":{"ha":1042,"x_min":101,"x_max":975,"o":"m 328 0 l 101 0 l 101 992 l 332 992 l 332 624 q 455 715 381 683 q 621 747 529 747 q 807 700 728 747 q 931 569 886 653 q 975 371 975 485 q 929 168 975 257 q 799 28 883 79 q 599 -22 714 -22 q 328 94 422 -22 l 328 0 m 331 383 l 331 349 q 385 206 331 261 q 533 151 440 151 q 688 206 636 151 q 740 365 740 261 q 688 519 740 465 q 540 574 636 574 q 390 519 449 574 q 331 383 331 465 z "},"c":{"ha":946,"x_min":65,"x_max":893,"o":"m 65 358 q 118 567 65 479 q 268 701 171 654 q 499 747 365 747 q 694 713 615 747 q 819 619 774 678 q 881 483 865 560 l 663 458 q 500 575 633 575 q 353 520 404 575 q 301 363 301 465 q 353 206 301 260 q 501 151 404 151 q 674 271 653 151 l 893 271 q 775 58 874 138 q 496 -22 676 -22 q 176 80 286 -22 q 65 358 65 182 z "},"d":{"ha":1042,"x_min":65,"x_max":940,"o":"m 65 354 q 111 558 65 469 q 242 697 157 646 q 443 747 326 747 q 710 633 617 747 l 710 992 l 940 992 l 940 0 l 714 0 l 714 107 q 589 10 664 43 q 421 -22 514 -22 q 234 25 314 -22 q 110 157 154 72 q 65 354 65 242 m 301 360 q 353 206 301 260 q 501 151 404 151 q 610 176 563 151 q 684 245 657 201 q 711 343 711 289 l 711 378 q 656 519 711 465 q 507 574 601 574 q 353 519 406 574 q 301 360 301 464 z "},"e":{"ha":971,"x_min":65,"x_max":904,"o":"m 65 354 q 119 562 65 474 q 269 699 172 650 q 493 747 365 747 q 797 649 690 747 q 904 374 904 551 l 904 311 l 288 311 q 350 176 297 219 q 494 132 403 132 q 681 221 647 132 l 896 221 q 488 -22 838 -22 q 176 77 288 -22 q 65 354 65 176 m 688 436 q 636 558 682 519 q 492 596 590 596 q 347 550 390 596 q 293 436 304 504 l 688 436 z "},"f":{"ha":661,"x_min":31,"x_max":669,"o":"m 171 538 l 31 538 l 31 706 l 171 706 l 171 743 q 252 934 171 865 q 479 1003 333 1003 q 576 997 531 1003 q 669 978 622 992 l 636 825 q 585 834 610 832 q 529 836 560 836 q 401 740 401 836 l 401 706 l 628 706 l 628 538 l 401 538 l 401 0 l 171 0 l 171 538 z "},"g":{"ha":1028,"x_min":65,"x_max":940,"o":"m 710 69 l 710 143 q 421 26 611 26 q 235 71 315 26 q 110 196 156 115 q 65 382 65 276 q 112 570 65 488 q 244 700 158 653 q 443 747 329 747 q 600 719 533 747 q 715 632 667 690 l 715 725 l 940 725 l 940 115 q 837 -189 940 -93 q 514 -285 733 -285 q 219 -224 321 -285 q 100 -40 118 -164 l 324 -40 q 383 -108 339 -87 q 513 -129 426 -129 q 662 -81 614 -129 q 710 69 710 -33 m 711 394 q 654 528 711 479 q 507 576 597 576 q 355 526 408 576 q 301 386 301 476 q 354 245 301 296 q 501 194 407 194 q 651 243 592 194 q 711 374 711 292 l 711 394 z "},"h":{"ha":1013,"x_min":101,"x_max":917,"o":"m 101 992 l 332 992 l 332 617 q 463 715 392 682 q 622 747 533 747 q 840 676 764 747 q 917 471 917 604 l 917 0 l 686 0 l 686 428 q 651 535 686 501 q 538 569 615 569 q 456 554 496 569 q 386 511 415 539 q 332 393 332 461 l 332 0 l 101 0 l 101 992 z "},"i":{"ha":433,"x_min":100,"x_max":335,"o":"m 101 725 l 332 725 l 332 0 l 101 0 l 101 725 m 100 1001 l 335 1001 l 335 835 l 100 835 l 100 1001 z "},"j":{"ha":433,"x_min":-117,"x_max":335,"o":"m 101 -24 l 101 725 l 332 725 l 332 -17 q 270 -221 332 -157 q 72 -285 208 -285 q -117 -258 -26 -285 l -83 -104 q -29 -112 -53 -110 q 14 -115 -6 -115 q 82 -95 63 -115 q 101 -24 101 -75 m 100 1001 l 335 1001 l 335 835 l 100 835 l 100 1001 z "},"k":{"ha":975,"x_min":101,"x_max":971,"o":"m 101 992 l 332 992 l 332 479 l 653 725 l 939 725 l 626 488 l 971 0 l 715 0 l 465 368 l 332 268 l 332 0 l 101 0 l 101 992 z "},"l":{"ha":433,"x_min":101,"x_max":332,"o":"m 101 992 l 332 992 l 332 0 l 101 0 l 101 992 z "},"m":{"ha":1501,"x_min":101,"x_max":1406,"o":"m 101 725 l 328 725 l 328 614 q 447 713 381 678 q 597 747 514 747 q 842 608 782 747 q 1133 747 954 747 q 1335 676 1264 747 q 1406 471 1406 604 l 1406 0 l 1174 0 l 1174 432 q 1144 537 1174 504 q 1049 569 1115 569 q 917 515 975 569 q 868 410 868 471 l 868 0 l 638 0 l 638 432 q 608 537 638 504 q 513 569 578 569 q 381 511 436 569 q 332 397 332 465 l 332 0 l 101 0 l 101 725 z "},"n":{"ha":1013,"x_min":101,"x_max":917,"o":"m 101 725 l 328 725 l 328 614 q 460 714 388 681 q 622 747 532 747 q 840 676 764 747 q 917 471 917 604 l 917 0 l 686 0 l 686 428 q 651 535 686 501 q 538 569 615 569 q 456 554 496 569 q 386 511 415 539 q 332 393 332 461 l 332 0 l 101 0 l 101 725 z "},"o":{"ha":1013,"x_min":65,"x_max":947,"o":"m 65 360 q 119 567 65 481 q 274 701 174 654 q 511 747 375 747 q 833 647 718 747 q 947 365 947 547 q 893 159 947 246 q 739 25 839 72 q 501 -22 639 -22 q 181 78 296 -22 q 65 360 65 179 m 301 363 q 354 206 301 261 q 506 151 407 151 q 659 206 606 151 q 713 363 713 261 q 659 520 713 465 q 507 575 606 575 q 355 520 408 575 q 301 363 301 465 z "},"p":{"ha":1042,"x_min":101,"x_max":975,"o":"m 101 725 l 328 725 l 328 618 q 453 715 378 682 q 621 747 528 747 q 807 700 728 747 q 931 569 886 653 q 975 371 975 485 q 929 168 975 257 q 799 28 883 79 q 599 -22 714 -22 q 332 93 424 -22 l 332 -269 l 101 -269 l 101 725 m 740 365 q 688 519 740 465 q 540 574 636 574 q 390 519 449 574 q 331 383 331 465 l 331 349 q 385 206 331 261 q 533 151 440 151 q 688 206 636 151 q 740 365 740 261 z "},"q":{"ha":1042,"x_min":65,"x_max":940,"o":"m 710 104 q 587 10 661 42 q 421 -22 513 -22 q 234 25 314 -22 q 110 157 154 72 q 65 354 65 242 q 111 558 65 469 q 242 697 157 646 q 443 747 326 747 q 715 626 622 747 l 715 725 l 940 725 l 940 -269 l 710 -269 l 710 104 m 711 343 l 711 378 q 656 519 711 465 q 507 574 601 574 q 353 519 406 574 q 301 360 301 464 q 353 206 301 260 q 501 151 404 151 q 653 205 594 151 q 711 343 711 258 z "},"r":{"ha":697,"x_min":101,"x_max":671,"o":"m 101 725 l 328 725 l 328 611 q 588 738 432 738 q 628 735 607 738 q 671 731 649 733 l 644 547 q 560 554 596 554 q 392 501 454 554 q 332 381 332 450 l 332 0 l 101 0 l 101 725 z "},"s":{"ha":904,"x_min":53,"x_max":851,"o":"m 632 206 q 600 254 632 238 q 482 283 568 271 l 393 297 q 147 376 221 324 q 74 526 74 428 q 173 689 74 631 q 449 747 272 747 q 721 693 632 747 q 836 536 810 639 l 624 515 q 449 603 596 603 q 331 583 372 603 q 289 528 289 563 q 319 481 289 497 q 432 451 350 464 l 528 438 q 722 392 651 419 q 822 322 792 365 q 851 213 851 279 q 467 -22 851 -22 q 266 1 356 -22 q 120 77 176 24 q 53 222 64 131 l 269 222 q 334 149 285 171 q 464 126 383 126 q 589 147 546 126 q 632 206 632 167 z "},"":{"ha":904,"x_min":53,"x_max":851,"o":"m 632 206 q 600 254 632 238 q 482 283 568 271 l 393 297 q 147 376 221 324 q 74 526 74 428 q 173 689 74 631 q 449 747 272 747 q 721 693 632 747 q 836 536 810 639 l 624 515 q 449 603 596 603 q 331 583 372 603 q 289 528 289 563 q 319 481 289 497 q 432 451 350 464 l 528 438 q 722 392 651 419 q 822 322 792 365 q 851 213 851 279 q 467 -22 851 -22 q 266 1 356 -22 q 120 77 176 24 q 53 222 64 131 l 269 222 q 334 149 285 171 q 464 126 383 126 q 589 147 546 126 q 632 206 632 167 z "},"t":{"ha":686,"x_min":31,"x_max":657,"o":"m 171 251 l 171 557 l 31 557 l 31 725 l 171 725 l 171 918 l 401 918 l 401 725 l 633 725 l 633 557 l 401 557 l 401 261 q 428 183 401 207 q 510 160 454 160 q 626 179 564 160 l 657 18 q 556 -6 606 1 q 446 -14 507 -14 q 235 49 300 -14 q 171 251 171 113 z "},"u":{"ha":1000,"x_min":96,"x_max":900,"o":"m 96 251 l 96 725 l 326 725 l 326 294 q 467 156 326 156 q 614 214 549 156 q 668 329 668 261 l 668 725 l 900 725 l 900 0 l 674 0 l 674 113 q 546 13 617 49 q 382 -22 475 -22 q 172 49 247 -22 q 96 251 96 121 z "},"v":{"ha":921,"x_min":11,"x_max":910,"o":"m 463 199 l 671 725 l 910 725 l 583 0 l 338 0 l 11 725 l 258 725 l 463 199 z "},"w":{"ha":1324,"x_min":14,"x_max":1310,"o":"m 1086 725 l 1310 725 l 1054 0 l 832 0 l 664 471 l 494 0 l 269 0 l 14 725 l 247 725 l 400 232 l 569 719 l 763 719 l 935 236 l 1086 725 z "},"":{"ha":1324,"x_min":14,"x_max":1310,"o":"m 1086 725 l 1310 725 l 1054 0 l 832 0 l 664 471 l 494 0 l 269 0 l 14 725 l 247 725 l 400 232 l 569 719 l 763 719 l 935 236 l 1086 725 z "},"x":{"ha":932,"x_min":11,"x_max":921,"o":"m 633 725 l 889 725 l 596 386 l 921 0 l 657 0 l 463 236 l 268 0 l 11 0 l 335 374 l 38 725 l 300 725 l 468 517 l 633 725 z "},"y":{"ha":928,"x_min":11,"x_max":917,"o":"m 97 -97 q 148 -109 124 -106 q 199 -112 172 -112 q 281 -90 249 -112 q 339 -14 313 -68 l 368 46 l 11 725 l 263 725 l 478 250 l 675 725 l 917 725 l 546 -39 q 458 -187 500 -133 q 364 -263 415 -242 q 239 -285 313 -285 q 150 -278 190 -285 q 64 -254 110 -271 l 97 -97 z "},"":{"ha":928,"x_min":11,"x_max":917,"o":"m 97 -97 q 148 -109 124 -106 q 199 -112 172 -112 q 281 -90 249 -112 q 339 -14 313 -68 l 368 46 l 11 725 l 263 725 l 478 250 l 675 725 l 917 725 l 546 -39 q 458 -187 500 -133 q 364 -263 415 -242 q 239 -285 313 -285 q 150 -278 190 -285 q 64 -254 110 -271 l 97 -97 z "},"z":{"ha":849,"x_min":40,"x_max":810,"o":"m 40 142 l 489 558 l 50 558 l 50 725 l 782 725 l 782 585 l 333 167 l 810 167 l 788 0 l 40 0 l 40 142 z "},"{":{"ha":588,"x_min":31,"x_max":567,"o":"m 156 54 l 156 235 q 46 335 156 335 l 31 335 l 31 513 l 43 513 q 156 613 156 513 l 156 793 q 419 1019 156 1019 l 567 1019 l 567 838 l 468 838 q 382 751 382 838 l 382 575 q 257 424 382 450 q 382 272 382 397 l 382 96 q 468 10 382 10 l 567 10 l 567 -172 l 419 -172 q 156 54 156 -172 z "},"|":{"ha":447,"x_min":119,"x_max":326,"o":"m 119 1019 l 326 1019 l 326 -172 l 119 -172 l 119 1019 z "},"}":{"ha":588,"x_min":21,"x_max":557,"o":"m 21 10 l 119 10 q 207 96 207 10 l 207 272 q 332 424 207 397 q 207 575 207 450 l 207 751 q 119 838 207 838 l 21 838 l 21 1019 l 168 1019 q 432 793 432 1019 l 432 613 q 542 513 432 513 l 557 513 l 557 335 l 546 335 q 432 235 432 335 l 432 54 q 168 -172 432 -172 l 21 -172 l 21 10 z "},"~":{"ha":972,"x_min":33,"x_max":939,"o":"m 33 321 q 301 638 33 638 q 409 621 358 638 q 519 564 460 604 q 594 521 565 533 q 654 508 624 508 q 744 622 744 508 l 939 622 q 671 306 939 306 q 563 323 614 306 q 453 379 513 340 q 378 422 407 410 q 318 435 349 435 q 228 321 228 435 l 33 321 z "}," ":{"ha":381,"x_min":0,"x_max":0,"o":""},"¡":{"ha":447,"x_min":99,"x_max":349,"o":"m 118 422 l 329 422 l 349 -267 l 99 -267 l 118 422 m 110 725 l 338 725 l 338 514 l 110 514 l 110 725 z "},"¢":{"ha":972,"x_min":71,"x_max":910,"o":"m 456 113 q 175 219 279 122 q 71 492 71 317 q 119 691 71 607 q 253 823 167 775 q 456 879 339 871 l 456 1007 l 554 1007 l 554 879 q 785 803 699 869 q 896 617 872 736 l 686 592 q 642 674 674 644 q 554 713 611 704 l 554 278 q 697 404 678 292 l 910 404 q 799 196 889 268 q 554 113 708 124 l 554 -22 l 456 -22 l 456 113 m 456 711 q 340 647 383 699 q 297 494 297 594 q 339 342 297 393 q 456 279 381 292 l 456 711 z "},"£":{"ha":972,"x_min":64,"x_max":928,"o":"m 100 154 q 181 242 157 197 q 204 350 204 286 q 203 392 204 368 l 64 392 l 64 558 l 172 558 q 159 626 163 597 q 156 679 156 654 q 259 904 156 822 q 539 986 363 986 q 799 918 704 986 q 911 719 893 850 l 703 694 q 649 782 685 757 q 543 807 613 807 q 419 770 464 807 q 375 667 375 733 q 380 611 375 639 q 392 558 385 583 l 749 558 l 749 392 l 417 392 q 418 356 418 372 q 401 267 418 308 q 342 186 385 225 l 928 186 l 903 0 l 100 0 l 100 154 z "},"¤":{"ha":972,"x_min":89,"x_max":883,"o":"m 129 483 q 181 674 129 589 l 89 774 l 238 906 l 326 806 q 486 839 400 839 q 644 806 572 839 l 733 906 l 883 774 l 792 674 q 843 483 843 589 q 792 293 843 378 l 883 193 l 733 61 l 644 161 q 486 128 572 128 q 326 161 400 128 l 238 61 l 89 193 l 181 293 q 129 483 129 378 m 322 483 q 364 340 322 390 q 486 289 406 289 q 608 339 567 289 q 649 483 649 389 q 608 628 649 578 q 486 678 567 678 q 364 628 406 678 q 322 483 322 578 z "},"¥":{"ha":972,"x_min":21,"x_max":951,"o":"m 374 131 l 86 131 l 86 247 l 374 247 l 374 339 l 86 339 l 86 456 l 343 456 l 333 467 l 21 960 l 263 960 l 489 575 l 717 960 l 951 960 l 639 467 l 629 456 l 886 456 l 886 339 l 599 339 l 599 247 l 886 247 l 886 131 l 599 131 l 599 0 l 374 0 l 374 131 z "},"¦":{"ha":447,"x_min":119,"x_max":326,"o":"m 119 318 l 326 318 l 326 -172 l 119 -172 l 119 318 m 119 1019 l 326 1019 l 326 553 l 119 553 l 119 1019 z "},"§":{"ha":917,"x_min":42,"x_max":865,"o":"m 647 71 q 617 128 647 107 q 510 164 586 150 l 356 194 q 127 278 196 226 q 58 424 58 331 q 204 604 58 560 q 97 676 131 632 q 64 782 64 719 q 167 956 64 894 q 458 1017 269 1017 q 861 793 806 1017 l 647 771 q 583 847 628 824 q 457 871 539 871 q 278 785 278 871 q 310 728 278 750 q 415 693 343 707 l 556 667 q 793 583 722 636 q 864 436 864 531 q 717 251 864 303 q 865 69 865 197 q 767 -107 865 -46 q 476 -168 668 -168 q 42 94 76 -168 l 264 94 q 326 6 276 33 q 471 -22 375 -22 q 647 71 647 -22 m 667 417 q 635 478 667 454 q 526 517 604 501 l 447 532 q 414 538 429 536 q 383 539 399 539 q 289 513 324 539 q 254 442 254 488 q 287 380 254 403 q 396 342 319 357 l 474 325 q 508 320 493 322 q 539 318 524 318 q 633 344 600 318 q 667 417 667 369 z "},"¨":{"ha":1013,"x_min":225,"x_max":786,"o":"m 225 1001 l 435 1001 l 435 835 l 225 835 l 225 1001 m 576 1001 l 786 1001 l 786 835 l 576 835 l 576 1001 z "},"©":{"ha":1269,"x_min":68,"x_max":1201,"o":"m 68 496 q 138 758 68 646 q 336 931 208 869 q 635 992 464 992 q 934 931 807 992 q 1131 758 1061 869 q 1201 496 1201 646 q 1131 234 1201 346 q 934 61 1061 122 q 635 0 807 0 q 336 61 464 0 q 138 234 208 122 q 68 496 68 346 m 200 496 q 253 293 200 379 q 403 160 306 207 q 635 114 500 114 q 867 160 769 114 q 1018 293 965 207 q 1071 496 1071 379 q 1018 699 1071 614 q 867 831 965 785 q 635 878 769 878 q 403 831 500 878 q 253 699 306 785 q 200 496 200 614 m 335 493 q 419 698 335 622 q 647 774 504 774 q 835 725 763 774 q 929 583 907 676 l 761 564 q 723 624 750 606 q 647 642 696 642 q 546 604 582 642 q 510 497 510 567 q 649 351 510 351 q 768 432 750 351 l 938 432 q 845 274 919 329 q 647 219 771 219 q 417 293 500 219 q 335 493 335 367 z "},"ª":{"ha":739,"x_min":50,"x_max":653,"o":"m 50 617 q 124 746 50 703 q 347 793 199 789 l 485 796 l 485 817 q 368 901 485 901 q 283 889 313 901 q 242 844 254 876 l 83 858 q 173 978 103 940 q 374 1017 243 1017 q 653 806 653 1017 l 653 469 l 493 469 l 493 542 q 278 456 424 456 q 109 498 168 456 q 50 617 50 540 m 219 631 q 322 569 219 569 q 440 597 397 569 q 485 676 485 628 l 485 701 l 358 699 q 251 681 283 697 q 219 631 219 665 z "},"«":{"ha":964,"x_min":50,"x_max":907,"o":"m 307 358 l 511 42 l 272 42 l 50 356 l 272 671 l 508 671 l 307 358 m 703 358 l 907 42 l 668 42 l 446 356 l 668 671 l 904 671 l 703 358 z "},"¬":{"ha":972,"x_min":88,"x_max":854,"o":"m 646 428 l 88 428 l 88 618 l 854 618 l 854 208 l 646 208 l 646 428 z "},"­":{"ha":676,"x_min":63,"x_max":614,"o":"m 63 514 l 614 514 l 614 313 l 63 313 l 63 514 z "},"®":{"ha":818,"x_min":53,"x_max":765,"o":"m 53 711 q 97 873 53 804 q 220 979 140 942 q 408 1017 300 1017 q 598 979 518 1017 q 722 873 678 942 q 765 711 765 804 q 722 549 765 618 q 598 442 678 479 q 408 404 518 404 q 220 442 300 404 q 97 549 140 479 q 53 711 53 618 m 139 711 q 210 543 139 604 q 408 482 282 482 q 607 543 536 482 q 678 711 678 604 q 607 878 678 818 q 408 939 536 939 q 210 878 282 939 q 139 711 139 818 m 356 567 l 268 567 l 268 860 l 422 860 q 528 835 494 860 q 561 763 561 811 q 507 682 561 706 l 581 567 l 488 567 l 429 661 l 356 661 l 356 567 m 475 761 q 462 784 475 776 q 415 792 449 792 l 356 792 l 356 731 l 419 731 q 463 739 451 731 q 475 761 475 747 z "},"¯":{"ha":1013,"x_min":257,"x_max":754,"o":"m 257 996 l 754 996 l 754 850 l 257 850 l 257 996 z "},"°":{"ha":578,"x_min":42,"x_max":536,"o":"m 42 749 q 74 875 42 821 q 161 960 106 929 q 289 992 217 992 q 417 960 361 992 q 504 875 472 929 q 536 749 536 821 q 504 624 536 678 q 417 538 472 569 q 289 507 361 507 q 161 538 217 507 q 74 624 106 569 q 42 749 42 678 m 190 749 q 217 675 190 704 q 289 646 244 646 q 360 675 333 646 q 388 749 388 704 q 360 824 388 794 q 289 853 333 853 q 217 824 244 853 q 190 749 190 794 z "},"±":{"ha":972,"x_min":99,"x_max":874,"o":"m 382 469 l 99 469 l 99 642 l 382 642 l 382 860 l 590 860 l 590 642 l 874 642 l 874 469 l 590 469 l 590 250 l 382 250 l 382 469 m 119 174 l 853 174 l 853 0 l 119 0 l 119 174 z "},"²":{"ha":683,"x_min":74,"x_max":614,"o":"m 82 681 q 174 738 128 708 q 268 799 221 768 q 374 873 340 847 q 419 916 408 899 q 431 953 431 933 q 344 1019 431 1019 q 271 1001 297 1019 q 233 942 244 982 l 74 957 q 354 1146 118 1146 q 536 1099 469 1146 q 603 969 603 1051 q 586 902 603 933 q 527 835 569 871 q 408 749 485 799 q 371 724 393 739 q 318 692 349 710 l 614 692 l 597 564 l 82 564 l 82 681 z "},"³":{"ha":683,"x_min":69,"x_max":618,"o":"m 450 733 q 353 796 450 796 l 282 796 l 282 910 l 351 910 q 415 926 392 910 q 438 971 438 942 q 342 1028 438 1028 q 269 1012 294 1028 q 232 960 243 996 l 76 975 q 349 1146 121 1146 q 535 1103 468 1146 q 603 985 603 1061 q 506 864 603 904 q 618 726 618 826 q 547 594 618 642 q 349 546 476 546 q 145 599 218 546 q 69 750 72 653 l 226 750 q 262 685 233 706 q 343 665 290 665 q 450 733 450 665 z "},"´":{"ha":1013,"x_min":275,"x_max":740,"o":"m 481 1038 l 740 1038 l 485 815 l 275 815 l 481 1038 z "},"µ":{"ha":1006,"x_min":101,"x_max":906,"o":"m 101 725 l 332 725 l 332 294 q 472 157 332 157 q 551 172 514 157 q 619 214 589 188 q 674 329 674 261 l 674 725 l 906 725 l 906 0 l 679 0 l 679 119 q 443 -11 585 -11 q 332 15 372 -11 l 332 -269 l 101 -269 l 101 725 z "},"¶":{"ha":1121,"x_min":31,"x_max":1001,"o":"m 418 344 q 31 663 31 365 q 148 913 31 835 q 519 992 265 992 l 1001 992 l 1001 -193 l 792 -193 l 792 818 l 628 818 l 628 -193 l 418 -193 l 418 344 z "},"·":{"ha":421,"x_min":96,"x_max":325,"o":"m 96 639 l 325 639 l 325 401 l 96 401 l 96 639 z "},"¸":{"ha":1013,"x_min":325,"x_max":683,"o":"m 325 -185 q 436 -197 388 -197 q 521 -165 521 -197 q 497 -138 521 -146 q 414 -131 474 -131 l 369 -131 l 438 25 l 549 0 l 522 -62 q 644 -101 606 -71 q 683 -181 683 -131 q 629 -271 683 -239 q 472 -303 575 -303 q 387 -299 425 -303 q 325 -286 349 -294 l 325 -185 z "},"¹":{"ha":683,"x_min":104,"x_max":504,"o":"m 329 957 l 174 863 l 104 978 l 349 1128 l 504 1128 l 504 564 l 329 564 l 329 957 z "},"º":{"ha":779,"x_min":60,"x_max":721,"o":"m 60 729 q 149 940 60 863 q 393 1017 238 1017 q 635 942 550 1017 q 721 736 721 868 q 631 526 721 603 q 386 449 542 449 q 145 522 231 449 q 60 729 60 596 m 242 732 q 280 625 242 663 q 389 588 318 588 q 500 625 461 588 q 539 733 539 663 q 500 840 539 803 q 390 878 461 878 q 280 840 318 878 q 242 732 242 803 z "},"»":{"ha":964,"x_min":56,"x_max":913,"o":"m 261 354 l 56 671 l 294 671 l 517 357 l 294 42 l 58 42 l 261 354 m 657 354 l 451 671 l 690 671 l 913 357 l 690 42 l 454 42 l 657 354 z "},"¼":{"ha":1604,"x_min":104,"x_max":1564,"o":"m 997 960 l 1208 960 l 643 0 l 433 0 l 997 960 m 1314 108 l 975 108 l 975 222 l 1296 564 l 1467 564 l 1467 226 l 1564 226 l 1549 108 l 1467 108 l 1467 0 l 1314 0 l 1314 108 m 1314 426 l 1125 226 l 1314 226 l 1314 426 m 329 789 l 174 694 l 104 810 l 349 960 l 504 960 l 504 396 l 329 396 l 329 789 z "},"½":{"ha":1604,"x_min":104,"x_max":1535,"o":"m 965 960 l 1176 960 l 611 0 l 401 0 l 965 960 m 1003 117 q 1095 174 1049 144 q 1189 235 1142 204 q 1295 309 1261 283 q 1340 352 1329 335 q 1351 389 1351 369 q 1265 456 1351 456 q 1192 437 1218 456 q 1154 378 1165 418 l 994 393 q 1275 582 1039 582 q 1457 535 1390 582 q 1524 406 1524 488 q 1507 338 1524 369 q 1448 271 1490 307 q 1329 185 1406 235 q 1292 160 1314 175 q 1239 128 1269 146 l 1535 128 l 1518 0 l 1003 0 l 1003 117 m 329 789 l 174 694 l 104 810 l 349 960 l 504 960 l 504 396 l 329 396 l 329 789 z "},"¾":{"ha":1604,"x_min":69,"x_max":1564,"o":"m 1018 960 l 1229 960 l 664 0 l 454 0 l 1018 960 m 1314 108 l 975 108 l 975 222 l 1296 564 l 1467 564 l 1467 226 l 1564 226 l 1549 108 l 1467 108 l 1467 0 l 1314 0 l 1314 108 m 1314 426 l 1125 226 l 1314 226 l 1314 426 m 450 565 q 353 628 450 628 l 282 628 l 282 742 l 351 742 q 415 758 392 742 q 438 803 438 774 q 342 860 438 860 q 269 844 294 860 q 232 792 243 828 l 76 807 q 349 978 121 978 q 535 935 468 978 q 603 817 603 893 q 506 696 603 736 q 618 558 618 658 q 547 426 618 474 q 349 378 476 378 q 145 431 218 378 q 69 582 72 485 l 226 582 q 262 517 233 538 q 343 497 290 497 q 450 565 450 497 z "},"¿":{"ha":900,"x_min":61,"x_max":871,"o":"m 61 -21 q 99 115 61 57 q 229 238 138 172 q 308 301 281 275 q 347 351 336 326 q 357 406 357 375 l 357 422 l 569 422 l 569 400 q 556 315 569 353 q 509 241 542 276 q 418 163 476 206 q 342 102 368 126 q 306 58 315 78 q 297 13 297 38 q 457 -97 297 -97 q 591 -66 543 -97 q 657 33 639 -35 l 871 11 q 739 -208 846 -133 q 446 -283 632 -283 q 163 -214 265 -283 q 61 -21 61 -144 m 350 725 l 578 725 l 578 514 l 350 514 l 350 725 z "},"À":{"ha":1208,"x_min":17,"x_max":1192,"o":"m 268 0 l 17 0 l 464 992 l 744 992 l 1192 0 l 933 0 l 842 211 l 356 211 l 268 0 m 600 796 l 432 397 l 769 397 l 600 796 m 754 1074 l 528 1074 l 271 1282 l 546 1282 l 754 1074 z "},"Á":{"ha":1208,"x_min":17,"x_max":1192,"o":"m 268 0 l 17 0 l 464 992 l 744 992 l 1192 0 l 933 0 l 842 211 l 356 211 l 268 0 m 600 796 l 432 397 l 769 397 l 600 796 m 657 1282 l 932 1282 l 675 1074 l 449 1074 l 657 1282 z "},"Â":{"ha":1208,"x_min":17,"x_max":1192,"o":"m 268 0 l 17 0 l 464 992 l 744 992 l 1192 0 l 933 0 l 842 211 l 356 211 l 268 0 m 600 796 l 432 397 l 769 397 l 600 796 m 490 1282 l 713 1282 l 914 1074 l 713 1074 l 601 1181 l 489 1074 l 289 1074 l 490 1282 z "},"Ã":{"ha":1208,"x_min":17,"x_max":1192,"o":"m 268 0 l 17 0 l 464 992 l 744 992 l 1192 0 l 933 0 l 842 211 l 356 211 l 268 0 m 600 796 l 432 397 l 769 397 l 600 796 m 443 1075 l 301 1075 q 344 1240 301 1189 q 472 1290 386 1290 q 542 1278 506 1290 q 626 1239 579 1267 q 681 1213 663 1221 q 717 1204 700 1204 q 752 1224 743 1204 q 761 1286 761 1243 l 903 1286 q 860 1123 903 1175 q 732 1071 818 1071 q 664 1083 699 1071 q 581 1121 629 1094 q 525 1149 546 1140 q 489 1157 504 1157 q 453 1137 463 1157 q 443 1075 443 1117 z "},"Ä":{"ha":1208,"x_min":17,"x_max":1192,"o":"m 268 0 l 17 0 l 464 992 l 744 992 l 1192 0 l 933 0 l 842 211 l 356 211 l 268 0 m 600 796 l 432 397 l 769 397 l 600 796 m 308 1267 l 528 1267 l 528 1083 l 308 1083 l 308 1267 m 675 1267 l 894 1267 l 894 1083 l 675 1083 l 675 1267 z "},"Å":{"ha":1208,"x_min":17,"x_max":1192,"o":"m 268 0 l 17 0 l 464 992 l 744 992 l 1192 0 l 933 0 l 842 211 l 356 211 l 268 0 m 600 796 l 432 397 l 769 397 l 600 796 m 399 1190 q 454 1313 399 1267 q 601 1358 510 1358 q 749 1313 693 1358 q 804 1190 804 1267 q 749 1069 804 1115 q 601 1022 693 1022 q 454 1069 510 1022 q 399 1190 399 1115 m 522 1190 q 601 1126 522 1126 q 681 1190 681 1126 q 601 1256 681 1256 q 522 1190 522 1256 z "},"Æ":{"ha":1814,"x_min":17,"x_max":1754,"o":"m 1722 806 l 1161 806 l 1161 599 l 1692 599 l 1692 414 l 1161 414 l 1161 186 l 1754 186 l 1728 0 l 928 0 l 928 281 l 479 281 l 285 0 l 17 0 l 718 992 l 1722 992 l 1722 806 m 928 806 l 838 806 l 603 465 l 928 465 l 928 806 z "},"Ç":{"ha":1208,"x_min":72,"x_max":1154,"o":"m 72 496 q 138 765 72 647 q 328 949 203 882 q 632 1017 453 1017 q 1138 672 1049 1017 l 896 644 q 801 775 864 735 q 632 815 739 815 q 408 732 489 815 q 326 496 326 649 q 408 260 326 343 q 636 176 489 176 q 908 354 868 176 l 1154 354 q 997 74 1133 174 q 632 -25 860 -25 q 326 41 451 -25 q 137 224 201 107 q 72 496 72 342 m 451 -196 q 567 -208 522 -208 q 656 -172 656 -208 q 630 -144 656 -153 q 542 -135 604 -135 l 499 -135 l 568 26 l 683 0 l 657 -64 q 822 -189 822 -82 q 765 -281 822 -249 q 603 -314 708 -314 q 451 -297 504 -314 l 451 -196 z "},"È":{"ha":1053,"x_min":119,"x_max":993,"o":"m 119 992 l 961 992 l 961 806 l 361 806 l 361 599 l 932 599 l 932 414 l 361 414 l 361 186 l 993 186 l 967 0 l 119 0 l 119 992 m 693 1074 l 467 1074 l 210 1282 l 485 1282 l 693 1074 z "},"É":{"ha":1053,"x_min":119,"x_max":993,"o":"m 119 992 l 961 992 l 961 806 l 361 806 l 361 599 l 932 599 l 932 414 l 361 414 l 361 186 l 993 186 l 967 0 l 119 0 l 119 992 m 596 1282 l 871 1282 l 614 1074 l 388 1074 l 596 1282 z "},"Ê":{"ha":1053,"x_min":119,"x_max":993,"o":"m 119 992 l 961 992 l 961 806 l 361 806 l 361 599 l 932 599 l 932 414 l 361 414 l 361 186 l 993 186 l 967 0 l 119 0 l 119 992 m 429 1282 l 651 1282 l 853 1074 l 651 1074 l 540 1181 l 428 1074 l 228 1074 l 429 1282 z "},"Ë":{"ha":1053,"x_min":119,"x_max":993,"o":"m 119 992 l 961 992 l 961 806 l 361 806 l 361 599 l 932 599 l 932 414 l 361 414 l 361 186 l 993 186 l 967 0 l 119 0 l 119 992 m 247 1267 l 467 1267 l 467 1083 l 247 1083 l 247 1267 m 614 1267 l 833 1267 l 833 1083 l 614 1083 l 614 1267 z "},"Ì":{"ha":485,"x_min":-87,"x_max":396,"o":"m 119 992 l 364 992 l 364 0 l 119 0 l 119 992 m 396 1074 l 169 1074 l -87 1282 l 188 1282 l 396 1074 z "},"Í":{"ha":485,"x_min":90,"x_max":574,"o":"m 119 992 l 364 992 l 364 0 l 119 0 l 119 992 m 299 1282 l 574 1282 l 317 1074 l 90 1074 l 299 1282 z "},"Î":{"ha":485,"x_min":-69,"x_max":556,"o":"m 119 992 l 364 992 l 364 0 l 119 0 l 119 992 m 132 1282 l 354 1282 l 556 1074 l 354 1074 l 243 1181 l 131 1074 l -69 1074 l 132 1282 z "},"Ï":{"ha":485,"x_min":-50,"x_max":536,"o":"m 119 992 l 364 992 l 364 0 l 119 0 l 119 992 m -50 1267 l 169 1267 l 169 1083 l -50 1083 l -50 1267 m 317 1267 l 536 1267 l 536 1083 l 317 1083 l 317 1267 z "},"Ð":{"ha":1282,"x_min":28,"x_max":1210,"o":"m 168 414 l 28 414 l 28 596 l 168 596 l 168 992 l 619 992 q 1060 865 910 992 q 1210 496 1210 739 q 1052 129 1210 258 q 600 0 894 0 l 168 0 l 168 414 m 663 414 l 404 414 l 404 194 l 607 194 q 960 497 960 194 q 624 797 960 797 l 404 797 l 404 596 l 663 596 l 663 414 z "},"Ñ":{"ha":1244,"x_min":119,"x_max":1125,"o":"m 119 992 l 340 992 l 892 329 l 892 992 l 1125 992 l 1125 0 l 904 0 l 353 664 l 353 0 l 119 0 l 119 992 m 458 1075 l 317 1075 q 359 1240 317 1189 q 488 1290 401 1290 q 558 1278 521 1290 q 642 1239 594 1267 q 697 1213 678 1221 q 732 1204 715 1204 q 767 1224 758 1204 q 776 1286 776 1243 l 918 1286 q 876 1123 918 1175 q 747 1071 833 1071 q 679 1083 714 1071 q 596 1121 644 1094 q 540 1149 561 1140 q 504 1157 519 1157 q 468 1137 478 1157 q 458 1075 458 1117 z "},"Ò":{"ha":1304,"x_min":72,"x_max":1232,"o":"m 72 496 q 143 774 72 657 q 344 953 214 890 q 654 1017 475 1017 q 963 953 833 1017 q 1162 774 1092 890 q 1232 496 1232 657 q 1161 218 1232 335 q 960 38 1090 101 q 650 -25 829 -25 q 342 38 472 -25 q 142 218 213 101 q 72 496 72 335 m 326 496 q 412 260 326 344 q 653 176 497 176 q 892 260 806 176 q 978 496 978 344 q 892 732 978 649 q 653 815 807 815 q 413 731 499 815 q 326 496 326 647 m 806 1074 l 579 1074 l 322 1282 l 597 1282 l 806 1074 z "},"Ó":{"ha":1304,"x_min":72,"x_max":1232,"o":"m 72 496 q 143 774 72 657 q 344 953 214 890 q 654 1017 475 1017 q 963 953 833 1017 q 1162 774 1092 890 q 1232 496 1232 657 q 1161 218 1232 335 q 960 38 1090 101 q 650 -25 829 -25 q 342 38 472 -25 q 142 218 213 101 q 72 496 72 335 m 326 496 q 412 260 326 344 q 653 176 497 176 q 892 260 806 176 q 978 496 978 344 q 892 732 978 649 q 653 815 807 815 q 413 731 499 815 q 326 496 326 647 m 708 1282 l 983 1282 l 726 1074 l 500 1074 l 708 1282 z "},"Ô":{"ha":1304,"x_min":72,"x_max":1232,"o":"m 72 496 q 143 774 72 657 q 344 953 214 890 q 654 1017 475 1017 q 963 953 833 1017 q 1162 774 1092 890 q 1232 496 1232 657 q 1161 218 1232 335 q 960 38 1090 101 q 650 -25 829 -25 q 342 38 472 -25 q 142 218 213 101 q 72 496 72 335 m 326 496 q 412 260 326 344 q 653 176 497 176 q 892 260 806 176 q 978 496 978 344 q 892 732 978 649 q 653 815 807 815 q 413 731 499 815 q 326 496 326 647 m 542 1282 l 764 1282 l 965 1074 l 764 1074 l 653 1181 l 540 1074 l 340 1074 l 542 1282 z "},"Õ":{"ha":1304,"x_min":72,"x_max":1232,"o":"m 72 496 q 143 774 72 657 q 344 953 214 890 q 654 1017 475 1017 q 963 953 833 1017 q 1162 774 1092 890 q 1232 496 1232 657 q 1161 218 1232 335 q 960 38 1090 101 q 650 -25 829 -25 q 342 38 472 -25 q 142 218 213 101 q 72 496 72 335 m 326 496 q 412 260 326 344 q 653 176 497 176 q 892 260 806 176 q 978 496 978 344 q 892 732 978 649 q 653 815 807 815 q 413 731 499 815 q 326 496 326 647 m 494 1075 l 353 1075 q 395 1240 353 1189 q 524 1290 438 1290 q 594 1278 557 1290 q 678 1239 631 1267 q 733 1213 714 1221 q 768 1204 751 1204 q 803 1224 794 1204 q 813 1286 813 1243 l 954 1286 q 912 1123 954 1175 q 783 1071 869 1071 q 715 1083 750 1071 q 632 1121 681 1094 q 576 1149 597 1140 q 540 1157 556 1157 q 504 1137 514 1157 q 494 1075 494 1117 z "},"Ö":{"ha":1304,"x_min":72,"x_max":1232,"o":"m 72 496 q 143 774 72 657 q 344 953 214 890 q 654 1017 475 1017 q 963 953 833 1017 q 1162 774 1092 890 q 1232 496 1232 657 q 1161 218 1232 335 q 960 38 1090 101 q 650 -25 829 -25 q 342 38 472 -25 q 142 218 213 101 q 72 496 72 335 m 326 496 q 412 260 326 344 q 653 176 497 176 q 892 260 806 176 q 978 496 978 344 q 892 732 978 649 q 653 815 807 815 q 413 731 499 815 q 326 496 326 647 m 360 1267 l 579 1267 l 579 1083 l 360 1083 l 360 1267 m 726 1267 l 946 1267 l 946 1083 l 726 1083 l 726 1267 z "},"×":{"ha":972,"x_min":131,"x_max":842,"o":"m 349 475 l 131 692 l 267 826 l 486 610 l 706 826 l 842 692 l 624 475 l 842 258 l 706 124 l 486 340 l 267 124 l 131 258 l 349 475 z "},"Ø":{"ha":1304,"x_min":72,"x_max":1232,"o":"m 72 496 q 143 774 72 657 q 344 953 214 890 q 654 1017 475 1017 q 943 963 818 1017 l 1036 1076 l 1144 997 l 1060 892 q 1188 724 1143 825 q 1232 496 1232 624 q 1161 218 1232 335 q 960 38 1090 101 q 650 -25 829 -25 q 361 29 486 -25 l 268 -85 l 160 -6 l 244 100 q 117 268 163 168 q 72 496 72 368 m 985 496 q 917 715 985 633 l 497 199 q 653 172 565 172 q 897 256 810 172 q 985 496 985 340 m 807 793 q 653 819 740 819 q 408 735 496 819 q 319 496 319 651 q 389 276 319 360 l 807 793 z "},"Ù":{"ha":1204,"x_min":108,"x_max":1096,"o":"m 108 422 l 108 992 l 353 992 l 353 406 q 413 232 353 288 q 603 176 474 176 q 791 232 731 176 q 851 406 851 288 l 851 992 l 1096 992 l 1096 422 q 969 82 1096 189 q 603 -25 843 -25 q 235 82 361 -25 q 108 422 108 189 m 756 1074 l 529 1074 l 272 1282 l 547 1282 l 756 1074 z "},"Ú":{"ha":1204,"x_min":108,"x_max":1096,"o":"m 108 422 l 108 992 l 353 992 l 353 406 q 413 232 353 288 q 603 176 474 176 q 791 232 731 176 q 851 406 851 288 l 851 992 l 1096 992 l 1096 422 q 969 82 1096 189 q 603 -25 843 -25 q 235 82 361 -25 q 108 422 108 189 m 658 1282 l 933 1282 l 676 1074 l 450 1074 l 658 1282 z "},"Û":{"ha":1204,"x_min":108,"x_max":1096,"o":"m 108 422 l 108 992 l 353 992 l 353 406 q 413 232 353 288 q 603 176 474 176 q 791 232 731 176 q 851 406 851 288 l 851 992 l 1096 992 l 1096 422 q 969 82 1096 189 q 603 -25 843 -25 q 235 82 361 -25 q 108 422 108 189 m 492 1282 l 714 1282 l 915 1074 l 714 1074 l 603 1181 l 490 1074 l 290 1074 l 492 1282 z "},"Ü":{"ha":1204,"x_min":108,"x_max":1096,"o":"m 108 422 l 108 992 l 353 992 l 353 406 q 413 232 353 288 q 603 176 474 176 q 791 232 731 176 q 851 406 851 288 l 851 992 l 1096 992 l 1096 422 q 969 82 1096 189 q 603 -25 843 -25 q 235 82 361 -25 q 108 422 108 189 m 310 1267 l 529 1267 l 529 1083 l 310 1083 l 310 1267 m 676 1267 l 896 1267 l 896 1083 l 676 1083 l 676 1267 z "},"Ý":{"ha":1113,"x_min":17,"x_max":1096,"o":"m 433 392 l 17 992 l 288 992 l 560 579 l 833 992 l 1096 992 l 678 390 l 678 0 l 433 0 l 433 392 m 615 1282 l 890 1282 l 633 1074 l 407 1074 l 615 1282 z "},"Þ":{"ha":1090,"x_min":119,"x_max":1031,"o":"m 119 992 l 358 992 l 358 835 l 604 835 q 1031 504 1031 835 q 921 251 1031 333 q 588 169 811 169 l 358 169 l 358 0 l 119 0 l 119 992 m 789 506 q 740 613 789 579 q 589 647 692 647 l 358 647 l 358 358 l 586 358 q 739 393 689 358 q 789 506 789 428 z "},"ß":{"ha":1044,"x_min":99,"x_max":979,"o":"m 750 292 q 514 433 750 433 l 438 433 l 438 600 l 497 600 q 671 724 671 600 q 627 805 671 776 q 501 833 583 833 q 326 693 326 833 l 326 0 l 99 0 l 99 672 q 204 916 99 829 q 503 1003 310 1003 q 792 937 689 1003 q 896 751 896 871 q 859 630 896 679 q 743 550 822 581 q 917 453 854 525 q 979 283 979 382 q 878 58 979 139 q 599 -22 778 -22 q 501 -16 549 -22 q 411 0 454 -10 l 439 165 q 497 156 465 160 q 558 151 528 151 q 705 185 660 151 q 750 292 750 218 z "},"à":{"ha":957,"x_min":56,"x_max":861,"o":"m 56 203 q 157 380 56 321 q 472 444 258 439 l 643 449 l 643 476 q 483 599 643 599 q 307 518 336 599 l 100 535 q 492 747 143 747 q 861 458 861 747 l 861 0 l 650 0 l 650 96 q 517 8 589 35 q 353 -19 446 -19 q 133 38 210 -19 q 56 203 56 96 m 275 219 q 417 131 275 131 q 526 149 475 131 q 610 203 578 168 q 643 288 643 238 l 643 322 l 486 318 q 326 292 376 315 q 275 219 275 268 m 644 815 l 435 815 l 179 1038 l 439 1038 l 644 815 z "},"á":{"ha":957,"x_min":56,"x_max":861,"o":"m 56 203 q 157 380 56 321 q 472 444 258 439 l 643 449 l 643 476 q 483 599 643 599 q 307 518 336 599 l 100 535 q 492 747 143 747 q 861 458 861 747 l 861 0 l 650 0 l 650 96 q 517 8 589 35 q 353 -19 446 -19 q 133 38 210 -19 q 56 203 56 96 m 275 219 q 417 131 275 131 q 526 149 475 131 q 610 203 578 168 q 643 288 643 238 l 643 322 l 486 318 q 326 292 376 315 q 275 219 275 268 m 550 1038 l 810 1038 l 554 815 l 344 815 l 550 1038 z "},"â":{"ha":957,"x_min":56,"x_max":861,"o":"m 56 203 q 157 380 56 321 q 472 444 258 439 l 643 449 l 643 476 q 483 599 643 599 q 307 518 336 599 l 100 535 q 492 747 143 747 q 861 458 861 747 l 861 0 l 650 0 l 650 96 q 517 8 589 35 q 353 -19 446 -19 q 133 38 210 -19 q 56 203 56 96 m 275 219 q 417 131 275 131 q 526 149 475 131 q 610 203 578 168 q 643 288 643 238 l 643 322 l 486 318 q 326 292 376 315 q 275 219 275 268 m 388 1038 l 601 1038 l 807 815 l 613 815 l 494 935 l 375 815 l 182 815 l 388 1038 z "},"ã":{"ha":957,"x_min":56,"x_max":861,"o":"m 56 203 q 157 380 56 321 q 472 444 258 439 l 643 449 l 643 476 q 483 599 643 599 q 307 518 336 599 l 100 535 q 492 747 143 747 q 861 458 861 747 l 861 0 l 650 0 l 650 96 q 517 8 589 35 q 353 -19 446 -19 q 133 38 210 -19 q 56 203 56 96 m 275 219 q 417 131 275 131 q 526 149 475 131 q 610 203 578 168 q 643 288 643 238 l 643 322 l 486 318 q 326 292 376 315 q 275 219 275 268 m 335 821 l 199 821 q 240 987 199 935 q 367 1039 282 1039 q 441 1027 406 1039 q 521 985 476 1015 q 567 958 550 965 q 601 951 585 951 q 654 1035 654 951 l 790 1035 q 749 869 790 921 q 622 817 707 817 q 548 829 583 817 q 468 871 513 842 q 422 898 439 890 q 388 906 404 906 q 335 821 335 906 z "},"ä":{"ha":957,"x_min":56,"x_max":861,"o":"m 56 203 q 157 380 56 321 q 472 444 258 439 l 643 449 l 643 476 q 483 599 643 599 q 307 518 336 599 l 100 535 q 492 747 143 747 q 861 458 861 747 l 861 0 l 650 0 l 650 96 q 517 8 589 35 q 353 -19 446 -19 q 133 38 210 -19 q 56 203 56 96 m 275 219 q 417 131 275 131 q 526 149 475 131 q 610 203 578 168 q 643 288 643 238 l 643 322 l 486 318 q 326 292 376 315 q 275 219 275 268 m 214 1001 l 424 1001 l 424 835 l 214 835 l 214 1001 m 565 1001 l 775 1001 l 775 835 l 565 835 l 565 1001 z "},"å":{"ha":957,"x_min":56,"x_max":861,"o":"m 56 203 q 157 380 56 321 q 472 444 258 439 l 643 449 l 643 476 q 483 599 643 599 q 307 518 336 599 l 100 535 q 492 747 143 747 q 861 458 861 747 l 861 0 l 650 0 l 650 96 q 517 8 589 35 q 353 -19 446 -19 q 133 38 210 -19 q 56 203 56 96 m 275 219 q 417 131 275 131 q 526 149 475 131 q 610 203 578 168 q 643 288 643 238 l 643 322 l 486 318 q 326 292 376 315 q 275 219 275 268 m 299 964 q 356 1084 299 1042 q 494 1126 413 1126 q 633 1084 576 1126 q 690 964 690 1042 q 633 845 690 888 q 494 803 576 803 q 356 845 414 803 q 299 964 299 888 m 417 964 q 438 918 417 933 q 494 903 460 903 q 551 918 531 903 q 572 964 572 933 q 551 1011 572 996 q 494 1026 531 1026 q 438 1011 460 1026 q 417 964 417 996 z "},"æ":{"ha":1522,"x_min":56,"x_max":1457,"o":"m 56 203 q 158 380 56 321 q 472 444 261 439 l 635 447 l 635 479 q 483 599 635 599 q 307 518 336 599 l 100 535 q 492 747 143 747 q 670 718 606 747 q 765 646 735 689 q 1051 747 874 747 q 1350 649 1243 747 q 1457 374 1457 551 l 1457 311 l 850 311 q 911 175 860 218 q 1051 132 963 132 q 1232 221 1199 132 l 1447 221 q 1046 -22 1389 -22 q 718 118 817 -22 q 564 13 660 44 q 353 -19 468 -19 q 133 38 210 -19 q 56 203 56 96 m 275 219 q 417 131 275 131 q 526 150 476 131 q 605 205 575 169 q 635 288 635 240 l 635 322 l 486 318 q 326 292 376 315 q 275 219 275 268 m 1240 436 q 1188 555 1238 514 q 1049 596 1139 596 q 908 550 950 596 q 853 436 865 504 l 1240 436 z "},"ç":{"ha":946,"x_min":65,"x_max":893,"o":"m 65 358 q 118 567 65 479 q 268 701 171 654 q 499 747 365 747 q 694 713 615 747 q 819 619 774 678 q 881 483 865 560 l 663 458 q 500 575 633 575 q 353 520 404 575 q 301 363 301 465 q 353 206 301 260 q 501 151 404 151 q 674 271 653 151 l 893 271 q 775 58 874 138 q 496 -22 676 -22 q 176 80 286 -22 q 65 358 65 182 m 315 -185 q 426 -197 378 -197 q 511 -165 511 -197 q 488 -138 511 -146 q 404 -131 464 -131 l 360 -131 l 428 25 l 539 0 l 513 -62 q 635 -101 596 -71 q 674 -181 674 -131 q 619 -271 674 -239 q 463 -303 565 -303 q 377 -299 415 -303 q 315 -286 339 -294 l 315 -185 z "},"è":{"ha":971,"x_min":65,"x_max":904,"o":"m 65 354 q 119 562 65 474 q 269 699 172 650 q 493 747 365 747 q 797 649 690 747 q 904 374 904 551 l 904 311 l 288 311 q 350 176 297 219 q 494 132 403 132 q 681 221 647 132 l 896 221 q 488 -22 838 -22 q 176 77 288 -22 q 65 354 65 176 m 688 436 q 636 558 682 519 q 492 596 590 596 q 347 550 390 596 q 293 436 304 504 l 688 436 m 646 815 l 436 815 l 181 1038 l 440 1038 l 646 815 z "},"é":{"ha":971,"x_min":65,"x_max":904,"o":"m 65 354 q 119 562 65 474 q 269 699 172 650 q 493 747 365 747 q 797 649 690 747 q 904 374 904 551 l 904 311 l 288 311 q 350 176 297 219 q 494 132 403 132 q 681 221 647 132 l 896 221 q 488 -22 838 -22 q 176 77 288 -22 q 65 354 65 176 m 688 436 q 636 558 682 519 q 492 596 590 596 q 347 550 390 596 q 293 436 304 504 l 688 436 m 551 1038 l 811 1038 l 556 815 l 346 815 l 551 1038 z "},"ê":{"ha":971,"x_min":65,"x_max":904,"o":"m 65 354 q 119 562 65 474 q 269 699 172 650 q 493 747 365 747 q 797 649 690 747 q 904 374 904 551 l 904 311 l 288 311 q 350 176 297 219 q 494 132 403 132 q 681 221 647 132 l 896 221 q 488 -22 838 -22 q 176 77 288 -22 q 65 354 65 176 m 688 436 q 636 558 682 519 q 492 596 590 596 q 347 550 390 596 q 293 436 304 504 l 688 436 m 389 1038 l 603 1038 l 808 815 l 614 815 l 496 935 l 376 815 l 183 815 l 389 1038 z "},"ë":{"ha":971,"x_min":65,"x_max":904,"o":"m 65 354 q 119 562 65 474 q 269 699 172 650 q 493 747 365 747 q 797 649 690 747 q 904 374 904 551 l 904 311 l 288 311 q 350 176 297 219 q 494 132 403 132 q 681 221 647 132 l 896 221 q 488 -22 838 -22 q 176 77 288 -22 q 65 354 65 176 m 688 436 q 636 558 682 519 q 492 596 590 596 q 347 550 390 596 q 293 436 304 504 l 688 436 m 215 1001 l 425 1001 l 425 835 l 215 835 l 215 1001 m 567 1001 l 776 1001 l 776 835 l 567 835 l 567 1001 z "},"ì":{"ha":433,"x_min":-99,"x_max":367,"o":"m 101 725 l 332 725 l 332 0 l 101 0 l 101 725 m 367 815 l 157 815 l -99 1038 l 161 1038 l 367 815 z "},"í":{"ha":433,"x_min":67,"x_max":532,"o":"m 101 725 l 332 725 l 332 0 l 101 0 l 101 725 m 272 1038 l 532 1038 l 276 815 l 67 815 l 272 1038 z "},"î":{"ha":433,"x_min":-96,"x_max":529,"o":"m 101 725 l 332 725 l 332 0 l 101 0 l 101 725 m 110 1038 l 324 1038 l 529 815 l 335 815 l 217 935 l 97 815 l -96 815 l 110 1038 z "},"ï":{"ha":433,"x_min":-64,"x_max":497,"o":"m 101 725 l 332 725 l 332 0 l 101 0 l 101 725 m -64 1001 l 146 1001 l 146 835 l -64 835 l -64 1001 m 288 1001 l 497 1001 l 497 835 l 288 835 l 288 1001 z "},"ð":{"ha":1010,"x_min":65,"x_max":944,"o":"m 65 319 q 110 492 65 413 q 242 621 154 572 q 461 669 331 669 q 601 651 542 669 q 711 589 660 632 q 637 730 689 675 q 510 817 585 785 l 390 711 l 319 783 l 397 853 q 310 868 356 863 q 215 876 264 874 l 236 1035 q 400 1018 322 1029 q 546 983 478 1007 l 658 1083 l 729 1010 l 649 939 q 867 736 789 864 q 944 414 944 608 q 900 195 944 294 q 756 37 856 96 q 494 -22 657 -22 q 180 69 294 -22 q 65 319 65 160 m 300 324 q 354 194 300 240 q 506 147 408 147 q 662 201 613 147 q 711 329 711 254 q 657 457 711 414 q 506 500 603 500 q 348 448 396 500 q 300 324 300 396 z "},"ñ":{"ha":1013,"x_min":101,"x_max":917,"o":"m 101 725 l 328 725 l 328 614 q 460 714 388 681 q 622 747 532 747 q 840 676 764 747 q 917 471 917 604 l 917 0 l 686 0 l 686 428 q 651 535 686 501 q 538 569 615 569 q 456 554 496 569 q 386 511 415 539 q 332 393 332 461 l 332 0 l 101 0 l 101 725 m 353 821 l 217 821 q 258 987 217 935 q 385 1039 300 1039 q 459 1027 424 1039 q 539 985 494 1015 q 585 958 568 965 q 619 951 603 951 q 672 1035 672 951 l 808 1035 q 767 869 808 921 q 640 817 725 817 q 566 829 601 817 q 486 871 531 842 q 440 898 457 890 q 406 906 422 906 q 353 821 353 906 z "},"ò":{"ha":1013,"x_min":65,"x_max":947,"o":"m 65 360 q 119 567 65 481 q 274 701 174 654 q 511 747 375 747 q 833 647 718 747 q 947 365 947 547 q 893 159 947 246 q 739 25 839 72 q 501 -22 639 -22 q 181 78 296 -22 q 65 360 65 179 m 301 363 q 354 206 301 261 q 506 151 407 151 q 659 206 606 151 q 713 363 713 261 q 659 520 713 465 q 507 575 606 575 q 355 520 408 575 q 301 363 301 465 m 657 815 l 447 815 l 192 1038 l 451 1038 l 657 815 z "},"ó":{"ha":1013,"x_min":65,"x_max":947,"o":"m 65 360 q 119 567 65 481 q 274 701 174 654 q 511 747 375 747 q 833 647 718 747 q 947 365 947 547 q 893 159 947 246 q 739 25 839 72 q 501 -22 639 -22 q 181 78 296 -22 q 65 360 65 179 m 301 363 q 354 206 301 261 q 506 151 407 151 q 659 206 606 151 q 713 363 713 261 q 659 520 713 465 q 507 575 606 575 q 355 520 408 575 q 301 363 301 465 m 563 1038 l 822 1038 l 567 815 l 357 815 l 563 1038 z "},"ô":{"ha":1013,"x_min":65,"x_max":947,"o":"m 65 360 q 119 567 65 481 q 274 701 174 654 q 511 747 375 747 q 833 647 718 747 q 947 365 947 547 q 893 159 947 246 q 739 25 839 72 q 501 -22 639 -22 q 181 78 296 -22 q 65 360 65 179 m 301 363 q 354 206 301 261 q 506 151 407 151 q 659 206 606 151 q 713 363 713 261 q 659 520 713 465 q 507 575 606 575 q 355 520 408 575 q 301 363 301 465 m 400 1038 l 614 1038 l 819 815 l 625 815 l 507 935 l 388 815 l 194 815 l 400 1038 z "},"õ":{"ha":1013,"x_min":65,"x_max":947,"o":"m 65 360 q 119 567 65 481 q 274 701 174 654 q 511 747 375 747 q 833 647 718 747 q 947 365 947 547 q 893 159 947 246 q 739 25 839 72 q 501 -22 639 -22 q 181 78 296 -22 q 65 360 65 179 m 301 363 q 354 206 301 261 q 506 151 407 151 q 659 206 606 151 q 713 363 713 261 q 659 520 713 465 q 507 575 606 575 q 355 520 408 575 q 301 363 301 465 m 347 821 l 211 821 q 253 987 211 935 q 379 1039 294 1039 q 453 1027 418 1039 q 533 985 489 1015 q 580 958 563 965 q 614 951 597 951 q 667 1035 667 951 l 803 1035 q 761 869 803 921 q 635 817 719 817 q 560 829 596 817 q 481 871 525 842 q 434 898 451 890 q 400 906 417 906 q 347 821 347 906 z "},"ö":{"ha":1013,"x_min":65,"x_max":947,"o":"m 65 360 q 119 567 65 481 q 274 701 174 654 q 511 747 375 747 q 833 647 718 747 q 947 365 947 547 q 893 159 947 246 q 739 25 839 72 q 501 -22 639 -22 q 181 78 296 -22 q 65 360 65 179 m 301 363 q 354 206 301 261 q 506 151 407 151 q 659 206 606 151 q 713 363 713 261 q 659 520 713 465 q 507 575 606 575 q 355 520 408 575 q 301 363 301 465 m 226 1001 l 436 1001 l 436 835 l 226 835 l 226 1001 m 578 1001 l 788 1001 l 788 835 l 578 835 l 578 1001 z "},"÷":{"ha":972,"x_min":94,"x_max":878,"o":"m 94 568 l 878 568 l 878 378 l 94 378 l 94 568 m 383 276 l 589 276 l 589 99 l 383 99 l 383 276 m 383 846 l 589 846 l 589 669 l 383 669 l 383 846 z "},"ø":{"ha":1013,"x_min":65,"x_max":947,"o":"m 65 360 q 119 567 65 481 q 274 701 174 654 q 511 747 375 747 q 721 713 631 747 l 806 814 l 897 739 l 825 653 q 947 365 947 551 q 893 159 947 246 q 739 25 839 72 q 501 -22 639 -22 q 292 13 382 -22 l 207 -89 l 115 -14 l 188 72 q 65 360 65 174 m 285 363 q 318 229 285 282 l 603 571 q 507 586 561 586 q 342 528 400 586 q 285 363 285 471 m 410 154 q 506 139 451 139 q 670 197 613 139 q 728 363 728 256 q 696 497 728 444 l 410 154 z "},"ù":{"ha":1000,"x_min":96,"x_max":900,"o":"m 96 251 l 96 725 l 326 725 l 326 294 q 467 156 326 156 q 614 214 549 156 q 668 329 668 261 l 668 725 l 900 725 l 900 0 l 674 0 l 674 113 q 546 13 617 49 q 382 -22 475 -22 q 172 49 247 -22 q 96 251 96 121 m 649 815 l 439 815 l 183 1038 l 443 1038 l 649 815 z "},"ú":{"ha":1000,"x_min":96,"x_max":900,"o":"m 96 251 l 96 725 l 326 725 l 326 294 q 467 156 326 156 q 614 214 549 156 q 668 329 668 261 l 668 725 l 900 725 l 900 0 l 674 0 l 674 113 q 546 13 617 49 q 382 -22 475 -22 q 172 49 247 -22 q 96 251 96 121 m 554 1038 l 814 1038 l 558 815 l 349 815 l 554 1038 z "},"û":{"ha":1000,"x_min":96,"x_max":900,"o":"m 96 251 l 96 725 l 326 725 l 326 294 q 467 156 326 156 q 614 214 549 156 q 668 329 668 261 l 668 725 l 900 725 l 900 0 l 674 0 l 674 113 q 546 13 617 49 q 382 -22 475 -22 q 172 49 247 -22 q 96 251 96 121 m 392 1038 l 606 1038 l 811 815 l 617 815 l 499 935 l 379 815 l 186 815 l 392 1038 z "},"ü":{"ha":1000,"x_min":96,"x_max":900,"o":"m 96 251 l 96 725 l 326 725 l 326 294 q 467 156 326 156 q 614 214 549 156 q 668 329 668 261 l 668 725 l 900 725 l 900 0 l 674 0 l 674 113 q 546 13 617 49 q 382 -22 475 -22 q 172 49 247 -22 q 96 251 96 121 m 218 1001 l 428 1001 l 428 835 l 218 835 l 218 1001 m 569 1001 l 779 1001 l 779 835 l 569 835 l 569 1001 z "},"ý":{"ha":928,"x_min":11,"x_max":917,"o":"m 97 -97 q 148 -109 124 -106 q 199 -112 172 -112 q 281 -90 249 -112 q 339 -14 313 -68 l 368 46 l 11 725 l 263 725 l 478 250 l 675 725 l 917 725 l 546 -39 q 458 -187 500 -133 q 364 -263 415 -242 q 239 -285 313 -285 q 150 -278 190 -285 q 64 -254 110 -271 l 97 -97 m 525 1038 l 785 1038 l 529 815 l 319 815 l 525 1038 z "},"þ":{"ha":1042,"x_min":101,"x_max":975,"o":"m 101 992 l 332 992 l 332 624 q 455 715 381 683 q 621 747 529 747 q 807 700 728 747 q 931 569 886 653 q 975 371 975 485 q 929 168 975 257 q 799 28 883 79 q 599 -22 714 -22 q 332 93 424 -22 l 332 -269 l 101 -269 l 101 992 m 740 365 q 688 519 740 465 q 540 574 636 574 q 390 519 449 574 q 331 383 331 465 l 331 349 q 385 206 331 261 q 533 151 440 151 q 688 206 636 151 q 740 365 740 261 z "},"ÿ":{"ha":928,"x_min":11,"x_max":917,"o":"m 97 -97 q 148 -109 124 -106 q 199 -112 172 -112 q 281 -90 249 -112 q 339 -14 313 -68 l 368 46 l 11 725 l 263 725 l 478 250 l 675 725 l 917 725 l 546 -39 q 458 -187 500 -133 q 364 -263 415 -242 q 239 -285 313 -285 q 150 -278 190 -285 q 64 -254 110 -271 l 97 -97 m 189 1001 l 399 1001 l 399 835 l 189 835 l 189 1001 m 540 1001 l 750 1001 l 750 835 l 540 835 l 540 1001 z "},"Œ":{"ha":1828,"x_min":72,"x_max":1768,"o":"m 72 496 q 103 690 72 597 q 200 857 135 783 q 365 974 265 931 q 600 1017 464 1017 q 944 886 819 1017 l 944 992 l 1736 992 l 1736 806 l 1175 806 l 1175 599 l 1706 599 l 1706 414 l 1175 414 l 1175 186 l 1768 186 l 1742 0 l 944 0 l 944 108 q 600 -25 819 -25 q 323 38 442 -25 q 138 218 204 101 q 72 496 72 335 m 326 496 q 408 260 326 344 q 639 176 490 176 q 863 258 782 176 q 944 496 944 339 q 863 734 944 653 q 639 815 782 815 q 493 788 553 815 q 397 715 433 761 q 343 611 360 668 q 326 496 326 554 z "},"œ":{"ha":1596,"x_min":65,"x_max":1531,"o":"m 65 360 q 119 567 65 481 q 274 701 174 654 q 511 747 375 747 q 691 715 613 747 q 822 625 769 683 q 950 715 874 683 q 1125 747 1026 747 q 1424 649 1318 747 q 1531 374 1531 551 l 1531 311 l 924 311 q 985 175 933 218 q 1126 132 1038 132 q 1307 221 1271 132 l 1521 221 q 1119 -22 1463 -22 q 813 100 913 -22 q 501 -22 703 -22 q 181 78 296 -22 q 65 360 65 179 m 301 363 q 354 206 301 261 q 506 151 407 151 q 652 206 600 151 q 704 363 704 261 q 653 520 704 465 q 507 575 601 575 q 355 520 408 575 q 301 363 301 465 m 1314 436 q 1122 596 1307 596 q 982 550 1025 596 q 926 436 939 504 l 1314 436 z "},"Ÿ":{"ha":1113,"x_min":17,"x_max":1096,"o":"m 433 392 l 17 992 l 288 992 l 560 579 l 833 992 l 1096 992 l 678 390 l 678 0 l 433 0 l 433 392 m 267 1267 l 486 1267 l 486 1083 l 267 1083 l 267 1267 m 633 1267 l 853 1267 l 853 1083 l 633 1083 l 633 1267 z "},"ʼ":{"ha":371,"x_min":43,"x_max":328,"o":"m 100 992 l 328 992 l 222 614 l 43 614 l 100 992 z "},"˜":{"ha":1013,"x_min":210,"x_max":801,"o":"m 346 821 l 210 821 q 251 987 210 935 q 378 1039 293 1039 q 452 1027 417 1039 q 532 985 488 1015 q 578 958 561 965 q 613 951 596 951 q 665 1035 665 951 l 801 1035 q 760 869 801 921 q 633 817 718 817 q 559 829 594 817 q 479 871 524 842 q 433 898 450 890 q 399 906 415 906 q 346 821 346 906 z "},"–":{"ha":847,"x_min":0,"x_max":847,"o":"m 0 510 l 847 510 l 847 317 l 0 317 l 0 510 z "},"—":{"ha":1694,"x_min":0,"x_max":1694,"o":"m 0 510 l 1694 510 l 1694 317 l 0 317 l 0 510 z "},"‘":{"ha":371,"x_min":43,"x_max":328,"o":"m 271 614 l 43 614 l 149 992 l 328 992 l 271 614 z "},"’":{"ha":371,"x_min":43,"x_max":328,"o":"m 100 992 l 328 992 l 222 614 l 43 614 l 100 992 z "},"“":{"ha":689,"x_min":43,"x_max":644,"o":"m 271 614 l 43 614 l 149 992 l 328 992 l 271 614 m 588 614 l 360 614 l 465 992 l 644 992 l 588 614 z "},"”":{"ha":689,"x_min":43,"x_max":644,"o":"m 100 992 l 328 992 l 222 614 l 43 614 l 100 992 m 417 992 l 644 992 l 539 614 l 360 614 l 417 992 z "},"„":{"ha":689,"x_min":43,"x_max":644,"o":"m 100 238 l 328 238 l 222 -140 l 43 -140 l 100 238 m 417 238 l 644 238 l 539 -140 l 360 -140 l 417 238 z "},"•":{"ha":588,"x_min":58,"x_max":529,"o":"m 58 413 q 124 569 58 508 q 293 629 189 629 q 464 569 399 629 q 529 413 529 508 q 464 256 529 317 q 293 196 399 196 q 124 256 189 196 q 58 413 58 317 z "},"…":{"ha":1694,"x_min":168,"x_max":1526,"o":"m 168 238 l 397 238 l 397 0 l 168 0 l 168 238 m 733 238 l 963 238 l 963 0 l 733 0 l 733 238 m 1297 238 l 1526 238 l 1526 0 l 1297 0 l 1297 238 z "},"‹":{"ha":567,"x_min":50,"x_max":511,"o":"m 307 358 l 511 42 l 272 42 l 50 356 l 272 671 l 508 671 l 307 358 z "},"›":{"ha":567,"x_min":56,"x_max":517,"o":"m 261 354 l 56 671 l 294 671 l 517 357 l 294 42 l 58 42 l 261 354 z "},"€":{"ha":972,"x_min":21,"x_max":957,"o":"m 135 479 q 136 525 135 503 l 21 525 l 46 635 l 149 635 q 283 892 179 797 q 568 986 386 986 q 819 921 725 986 q 944 719 913 856 l 728 694 q 669 783 708 757 q 563 810 631 810 q 435 762 479 810 q 372 635 390 714 l 732 635 l 707 525 l 358 525 q 357 479 357 503 q 358 435 357 456 l 690 435 l 665 324 l 369 324 q 431 197 386 242 q 561 151 476 151 q 678 181 636 151 q 735 276 719 211 l 957 276 q 832 52 935 129 q 557 -25 729 -25 q 147 324 206 -25 l 21 324 l 46 435 l 136 435 q 135 479 135 457 z "},"™":{"ha":1549,"x_min":17,"x_max":1442,"o":"m 692 992 l 879 992 l 1069 594 l 1258 992 l 1442 992 l 1442 436 l 1297 436 l 1297 800 l 1125 436 l 1006 436 l 835 799 l 835 436 l 692 436 l 692 992 m 229 861 l 17 861 l 17 992 l 601 992 l 601 861 l 389 861 l 389 436 l 229 436 l 229 861 z "}}}
